<svg fill="none" height="16" viewBox="0 0 17 16" width="17" xmlns="http://www.w3.org/2000/svg"><g fill="#fff"><path d="m7.66594 2c-.7101 0-1.28575.57565-1.28575 1.28575v.85717c0 .71011.57565 1.28576 1.28575 1.28576h5.14296c.7101 0 1.2858-.57565 1.2858-1.28576v-.85717c0-.7101-.5757-1.28575-1.2858-1.28575z"/><path d="m3.80597 7.57092c0-.7101.57565-1.28576 1.28575-1.28576h5.14298c.7101 0 1.2858.57566 1.2858 1.28576v.85717c0 .7101-.5757 1.28575-1.2858 1.28575h-5.14298c-.7101 0-1.28575-.57565-1.28575-1.28575z"/><path d="m1.23566 11.857c0-.7101.57565-1.2857 1.28575-1.2857h5.14301c.71011 0 1.28576.5756 1.28576 1.2857v.8572c0 .7101-.57565 1.2858-1.28576 1.2858h-5.14301c-.7101 0-1.28575-.5757-1.28575-1.2858z"/></g></svg>